<svg xmlns="http://www.w3.org/2000/svg" version="1.1" xmlns:xlink="http://www.w3.org/1999/xlink" xmlns:svgjs="http://svgjs.dev/svgjs" width="1000" height="239" viewBox="0 0 1000 239"><g transform="matrix(1,0,0,1,-0.6060606060606233,-0.3233737221576405)"><svg viewBox="0 0 396 95" data-background-color="#fbcd08" preserveAspectRatio="xMidYMid meet" height="239" width="1000" xmlns="http://www.w3.org/2000/svg" xmlns:xlink="http://www.w3.org/1999/xlink"><g id="tight-bounds" transform="matrix(1,0,0,1,0.2400000000000091,0.12853767198734545)"><svg viewBox="0 0 395.52 94.74292465602532" height="94.74292465602532" width="395.52"><g><svg viewBox="0 0 539.0505429304075 129.124254082335" height="94.74292465602532" width="395.52"><g transform="matrix(1,0,0,1,0,17.845682004143264)"><svg viewBox="0 0 395.52 93.43289007404847" height="93.43289007404847" width="395.52"><g id="textblocktransform"><svg viewBox="0 0 395.52 93.43289007404847" height="93.43289007404847" width="395.52" id="textblock"><g><svg viewBox="0 0 395.52 62.40147525868251" height="62.40147525868251" width="395.52"><g transform="matrix(1,0,0,1,0,0)"><svg width="395.52" viewBox="3.64 -37.55 238.29000000000002 37.599999999999994" height="62.40147525868251" data-palette-color="#372e18"><path d="M38.62-8.91L38.62-7.69Q38.62-6.52 38.22-5.18 37.82-3.83 36.9-2.69 35.99-1.54 34.52-0.77 33.06 0 30.93 0L30.93 0 6.84 0Q6.15 0 5.57-0.24 4.98-0.49 4.55-0.92 4.13-1.34 3.88-1.93 3.64-2.51 3.64-3.2L3.64-3.2 3.64-31.81Q3.64-32.47 3.88-33.06 4.13-33.64 4.55-34.08 4.98-34.52 5.57-34.77 6.15-35.01 6.84-35.01L6.84-35.01 28.08-35.01Q29.25-35.01 30.59-34.59 31.93-34.18 33.09-33.26 34.25-32.35 35.02-30.88 35.79-29.42 35.79-27.29L35.79-27.29 35.79-26.1Q35.79-24.41 35.23-22.47 34.67-20.53 33.42-18.8L33.42-18.8Q34.5-18.14 35.44-17.21 36.38-16.28 37.08-15.06 37.79-13.84 38.21-12.3 38.62-10.77 38.62-8.91L38.62-8.91ZM32.28-7.74L32.28-8.91Q32.28-10.16 31.88-11.15 31.49-12.13 30.79-12.84 30.08-13.55 29.08-13.93 28.08-14.31 26.83-14.31L26.83-14.31 12.52-14.31 12.52-20.7 23.97-20.7Q25.22-20.7 26.22-21.08 27.22-21.46 27.93-22.17 28.64-22.88 29.02-23.86 29.39-24.85 29.39-26.1L29.39-26.1 29.39-27.29Q29.39-28.66 28.08-28.66L28.08-28.66 9.99-28.66 9.99-6.35 30.93-6.35Q31.1-6.35 31.35-6.37 31.59-6.4 31.79-6.52 31.98-6.64 32.13-6.93 32.28-7.23 32.28-7.74L32.28-7.74ZM59.49-14.4L74.44 0 65.28 0 52.49-12.35Q51.41-13.33 51.49-14.79L51.49-14.79Q51.54-15.48 51.84-16.08 52.15-16.67 52.68-17.09L52.68-17.09 64.28-26.44 74.44-26.44 59.49-14.4ZM49.88-37.55L49.88 0 43.53 0 43.53-37.55 49.88-37.55ZM102-26.39L102-20.04 90.91-20.04 90.91 0 84.49 0 84.49-20.04 76.24-20.04 76.24-26.39 84.49-26.39 84.49-35.01 90.91-35.01 90.91-26.39 102-26.39ZM129.12-26.39L129.12-20.04 114.84-20.04Q113.54-20.04 112.88-19.4 112.22-18.75 112.22-17.5L112.22-17.5 112.22 0 105.88 0 105.88-17.5Q105.88-19.14 106.29-20.43 106.71-21.73 107.4-22.72 108.1-23.71 109-24.4 109.9-25.1 110.89-25.54 111.88-25.98 112.9-26.18 113.91-26.39 114.79-26.39L114.79-26.39 129.12-26.39ZM158.49-17.65L158.49-8.74Q158.49-7.42 158.02-5.9 157.56-4.37 156.52-3.06 155.48-1.76 153.81-0.88 152.14 0 149.75 0L149.75 0 138.3 0Q136.98 0 135.45-0.46 133.93-0.93 132.62-1.97 131.31-3 130.43-4.68 129.56-6.35 129.56-8.74L129.56-8.74Q129.56-10.06 130.02-11.6 130.48-13.13 131.52-14.44 132.56-15.75 134.23-16.63 135.9-17.5 138.3-17.5L138.3-17.5 149.75-17.5 149.75-11.45 138.3-11.45Q137-11.45 136.29-10.66 135.59-9.86 135.59-8.69L135.59-8.69Q135.59-7.45 136.4-6.75 137.22-6.05 138.34-6.05L138.34-6.05 149.75-6.05Q151.04-6.05 151.75-6.84 152.46-7.62 152.46-8.79L152.46-8.79 152.46-17.65Q152.46-18.9 151.69-19.63 150.92-20.36 149.75-20.36L149.75-20.36 135.81-20.36 135.81-26.39 149.75-26.39Q151.06-26.39 152.59-25.93 154.12-25.46 155.42-24.43 156.73-23.39 157.61-21.72 158.49-20.04 158.49-17.65L158.49-17.65ZM188.66-26.39L195.4-26.39Q194.32-23.05 192.88-19.8 191.44-16.55 189.57-13.61 187.71-10.67 185.4-8.17 183.09-5.66 180.3-3.85 177.5-2.03 174.22-0.99 170.93 0.05 167.1 0.05L167.1 0.05Q166.44 0.05 165.86-0.2 165.27-0.44 164.83-0.87 164.39-1.29 164.15-1.87 163.9-2.44 163.9-3.1L163.9-3.1 163.9-26.39 170.25-26.39 170.25-6.54Q172.57-6.54 174.71-7.54 176.84-8.54 178.75-10.19 180.65-11.84 182.28-13.94 183.9-16.04 185.17-18.25 186.44-20.46 187.33-22.58 188.22-24.71 188.66-26.39L188.66-26.39ZM226.06-17.65L226.06-17.65Q226.06-16.33 225.6-14.81 225.13-13.28 224.09-11.98 223.06-10.67 221.38-9.79 219.71-8.91 217.32-8.91L217.32-8.91 205.87-8.91 205.87-14.94 217.32-14.94Q218.61-14.94 219.32-15.73 220.03-16.53 220.03-17.7L220.03-17.7Q220.03-18.95 219.24-19.65 218.44-20.36 217.32-20.36L217.32-20.36 205.87-20.36Q204.57-20.36 203.87-19.57 203.16-18.77 203.16-17.6L203.16-17.6 203.16-8.74Q203.16-7.47 203.95-6.76 204.75-6.05 205.92-6.05L205.92-6.05 217.32-6.05 217.32 0 205.87 0Q204.55 0 203.02-0.46 201.5-0.93 200.19-1.97 198.89-3 198.01-4.68 197.13-6.35 197.13-8.74L197.13-8.74 197.13-17.65Q197.13-18.97 197.59-20.5 198.06-22.02 199.09-23.33 200.13-24.63 201.8-25.51 203.48-26.39 205.87-26.39L205.87-26.39 217.32-26.39Q218.64-26.39 220.16-25.93 221.69-25.46 223-24.43 224.3-23.39 225.18-21.72 226.06-20.04 226.06-17.65ZM241.93-6.35L241.93 0 239.09 0Q237.73 0 236.18-0.46 234.63-0.93 233.28-1.99 231.94-3.05 231.06-4.75 230.18-6.45 230.18-8.91L230.18-8.91 230.18-37.55 236.53-37.55 236.53-8.91Q236.53-7.74 237.26-7.04 238-6.35 239.09-6.35L239.09-6.35 241.93-6.35Z" opacity="1" transform="matrix(1,0,0,1,0,0)" fill="#372e18" class="wordmark-text-0" data-fill-palette-color="primary" id="text-0"></path></svg></g></svg></g><g transform="matrix(1,0,0,1,163.310208,77.13296593185125)"><svg viewBox="0 0 232.209792 16.299924142197227" height="16.299924142197227" width="232.209792"><g transform="matrix(1,0,0,1,0,0)"><svg width="232.209792" viewBox="3.3 -34.6 497.86 34.95" height="16.299924142197227" data-palette-color="#372e18"><path d="M26.45-16.45L26.45-16.45Q29-16.15 31.1-13.88 33.2-11.6 33.2-8.05L33.2-8.05Q33.2-4.6 32.7-2.93 32.2-1.25 31-0.63 29.8 0 27.35 0L27.35 0Q25.4 0 24.13-0.55 22.85-1.1 22.25-2.18 21.65-3.25 21.65-4.95L21.65-4.95Q21.65-7.15 21.48-8.63 21.3-10.1 21.03-10.98 20.75-11.85 20.2-12.3 19.65-12.75 19.13-12.88 18.6-13 17.7-13L17.7-13 15.05-13 15.05-7.45Q15.05-3.45 13.5-1.73 11.95 0 8.95 0L8.95 0Q6.05 0 4.67-1.63 3.3-3.25 3.3-7.1L3.3-7.1 3.3-27.95Q3.3-31.1 4.48-32.68 5.65-34.25 8.3-34.25L8.3-34.25Q9.85-34.25 10.88-34.05 11.9-33.85 12.88-33.33 13.85-32.8 14.33-31.68 14.8-30.55 14.8-28.8L14.8-28.8Q14.8-27.25 14.78-25.33 14.75-23.4 14.75-22.6L14.75-22.6Q14.75-21.95 15.08-21.5 15.4-21.05 16.07-20.78 16.75-20.5 17.75-20.5L17.75-20.5Q19.9-20.5 20.63-22.2 21.35-23.9 21.35-29.15L21.35-29.15Q21.35-31.75 22.75-33 24.15-34.25 27.25-34.25L27.25-34.25Q30.6-34.25 31.75-32.95 32.9-31.65 32.9-28.3L32.9-28.3Q32.9-22.8 30.98-19.78 29.05-16.75 26.45-16.45ZM54.05-4.15L54-13.4Q54-16.25 51.8-16.25L51.8-16.25Q51.4-16.25 51.07-16.15 50.75-16.05 50.47-15.9 50.2-15.75 49.97-15.48 49.75-15.2 49.57-14.88 49.4-14.55 49.32-14.1 49.25-13.65 49.25-13.1L49.25-13.1 49.25-7.6Q49.25-3.5 47.92-1.78 46.6-0.05 43.9-0.05L43.9-0.05Q41.1-0.05 39.8-1.63 38.5-3.2 38.5-7.2L38.5-7.2 38.4-28.5Q38.4-31.6 39.9-33.05 41.4-34.5 43.9-34.5L43.9-34.5Q46.55-34.5 47.9-33.4 49.25-32.3 49.25-28.95L49.25-28.95 49.25-21.7Q52.95-23.95 58.25-23.95L58.25-23.95Q60.65-23.95 62.1-22.73 63.55-21.5 64.25-18.85 64.95-16.2 64.95-11.9L64.95-11.9Q64.95-9.7 64.87-8.1 64.8-6.5 64.65-5.18 64.5-3.85 64.2-3 63.9-2.15 63.5-1.55 63.1-0.95 62.47-0.63 61.85-0.3 61.1-0.15 60.35 0 59.3 0L59.3 0Q56.5 0 55.27-1.03 54.05-2.05 54.05-4.15L54.05-4.15ZM78.5 0.3L78.5 0.3Q74.55 0.3 71.95-2.93 69.34-6.15 69.34-11.75L69.34-11.75Q69.34-17.45 71.92-20.83 74.5-24.2 78.5-24.2L78.5-24.2Q82.55-24.2 86-21.35L86-21.35Q87.34-23.85 90.34-23.85L90.34-23.85Q93.05-23.85 94.55-22.68 96.05-21.5 96.05-18.35L96.05-18.35 96.05-5.35Q96.05-2.35 94.8-1.18 93.55 0 90.4 0L90.4 0Q87.09 0 86.05-1.85L86.05-1.85Q82.84 0.3 78.5 0.3ZM85.3-7.2L85.3-16.55Q84.45-18 83.09-18L83.09-18Q81.8-18 81-16.1 80.2-14.2 80.2-11.75L80.2-11.75Q80.2-9.45 80.95-7.65 81.7-5.85 83.05-5.85L83.05-5.85Q84.45-5.85 85.3-7.2L85.3-7.2ZM130.39-4.15L130.39-13.2Q130.39-16 128.14-16L128.14-16Q127.14-16 126.64-14.85 126.14-13.7 126.14-11.95L126.14-11.95Q126.14-9.3 126.07-7.55 125.99-5.8 125.74-4.4 125.49-3 125.14-2.2 124.79-1.4 124.19-0.88 123.59-0.35 122.84-0.18 122.09 0 120.94 0L120.94 0Q119.19 0 118.12-0.5 117.04-1 116.59-1.9 116.14-2.8 116.14-4.15L116.14-4.15 116.14-13.2Q116.14-16 113.89-16L113.89-16Q112.99-16 112.42-14.98 111.84-13.95 111.84-12.3L111.84-12.3 111.84-5.35Q111.84-2.35 110.59-1.18 109.34 0 106.19 0L106.19 0Q103.24 0 102.17-1.38 101.09-2.75 101.09-5.9L101.09-5.9 101.09-18.2Q101.09-20.75 102.47-22.3 103.84-23.85 106.14-23.85L106.14-23.85Q110.24-23.85 111.34-21.2L111.34-21.2Q113.24-22.6 115.07-23.15 116.89-23.7 119.34-23.7L119.34-23.7Q123.04-23.7 124.69-20.5L124.69-20.5Q124.94-20.7 125.19-20.9L125.19-20.9Q129.04-23.7 134.64-23.7L134.64-23.7Q138.19-23.7 139.74-21 141.29-18.3 141.29-11.95L141.29-11.95Q141.29-9.3 141.22-7.55 141.14-5.8 140.89-4.4 140.64-3 140.27-2.2 139.89-1.4 139.22-0.88 138.54-0.35 137.72-0.18 136.89 0 135.64 0L135.64 0Q133.74 0 132.57-0.5 131.39-1 130.89-1.9 130.39-2.8 130.39-4.15L130.39-4.15ZM178.64-22.4L178.64-22.4Q178.64-24.25 178.29-25.33 177.94-26.4 177.06-26.95 176.19-27.5 175.16-27.68 174.14-27.85 172.34-27.85L172.34-27.85 172.34-16.85Q173.74-16.85 174.81-17.1 175.89-17.35 176.79-17.95 177.69-18.55 178.16-19.68 178.64-20.8 178.64-22.4ZM172.34-10.3L172.34-7.5Q172.34-3.45 170.84-1.73 169.34 0 166.24 0L166.24 0Q163.14 0 161.69-1.58 160.24-3.15 160.24-7.15L160.24-7.15 160.24-28.25Q160.24-31.3 161.89-32.77 163.54-34.25 166.24-34.25L166.24-34.25 175.14-34.25Q178.39-34.25 181.14-33.38 183.89-32.5 185.91-30.93 187.94-29.35 189.06-26.98 190.19-24.6 190.19-21.7L190.19-21.7Q190.19-18.15 188.14-15.53 186.09-12.9 182.74-11.6 179.39-10.3 175.19-10.3L175.19-10.3 172.34-10.3ZM210.19-4.15L210.13-13.4Q210.13-16.25 207.94-16.25L207.94-16.25Q207.53-16.25 207.21-16.15 206.88-16.05 206.61-15.9 206.34-15.75 206.11-15.48 205.88-15.2 205.71-14.88 205.53-14.55 205.46-14.1 205.38-13.65 205.38-13.1L205.38-13.1 205.38-7.6Q205.38-3.5 204.06-1.78 202.74-0.05 200.03-0.05L200.03-0.05Q197.24-0.05 195.94-1.63 194.63-3.2 194.63-7.2L194.63-7.2 194.53-28.5Q194.53-31.6 196.03-33.05 197.53-34.5 200.03-34.5L200.03-34.5Q202.69-34.5 204.03-33.4 205.38-32.3 205.38-28.95L205.38-28.95 205.38-21.7Q209.09-23.95 214.38-23.95L214.38-23.95Q216.78-23.95 218.24-22.73 219.69-21.5 220.38-18.85 221.09-16.2 221.09-11.9L221.09-11.9Q221.09-9.7 221.01-8.1 220.94-6.5 220.78-5.18 220.63-3.85 220.34-3 220.03-2.15 219.63-1.55 219.24-0.95 218.61-0.63 217.99-0.3 217.24-0.15 216.49 0 215.44 0L215.44 0Q212.63 0 211.41-1.03 210.19-2.05 210.19-4.15L210.19-4.15ZM234.63 0.3L234.63 0.3Q230.68 0.3 228.08-2.93 225.48-6.15 225.48-11.75L225.48-11.75Q225.48-17.45 228.06-20.83 230.63-24.2 234.63-24.2L234.63-24.2Q238.68-24.2 242.13-21.35L242.13-21.35Q243.48-23.85 246.48-23.85L246.48-23.85Q249.18-23.85 250.68-22.68 252.18-21.5 252.18-18.35L252.18-18.35 252.18-5.35Q252.18-2.35 250.93-1.18 249.68 0 246.53 0L246.53 0Q243.23 0 242.18-1.85L242.18-1.85Q238.98 0.3 234.63 0.3ZM241.43-7.2L241.43-16.55Q240.58-18 239.23-18L239.23-18Q237.93-18 237.13-16.1 236.33-14.2 236.33-11.75L236.33-11.75Q236.33-9.45 237.08-7.65 237.83-5.85 239.18-5.85L239.18-5.85Q240.58-5.85 241.43-7.2L241.43-7.2ZM286.68-8.15L286.68-8.15Q289.23-8.15 290-9.45 290.78-10.75 290.78-13.9L290.78-13.9Q290.78-15.4 290.8-20.83 290.83-26.25 290.83-29.1L290.83-29.1Q290.83-31.75 292.1-32.98 293.38-34.2 296.48-34.2L296.48-34.2Q299.23-34.2 300.58-32.83 301.93-31.45 302.48-27.83 303.03-24.2 303.03-16.8L303.03-16.8Q303.03-13.65 302.3-11.05 301.58-8.45 300.3-6.63 299.03-4.8 297.43-3.43 295.83-2.05 293.98-1.25 292.13-0.45 290.33-0.05 288.53 0.35 286.78 0.35L286.78 0.35Q284.63 0.35 282.45-0.18 280.28-0.7 278.05-2 275.83-3.3 274.13-5.18 272.43-7.05 271.35-10.08 270.28-13.1 270.28-16.8L270.28-16.8Q270.28-24.2 270.88-27.83 271.48-31.45 272.93-32.83 274.38-34.2 277.38-34.2L277.38-34.2Q280.18-34.2 281.33-32.98 282.48-31.75 282.48-29.1L282.48-29.1Q282.48-26.2 282.5-20.83 282.53-15.45 282.53-13.95L282.53-13.95Q282.53-12.65 282.6-11.88 282.68-11.1 282.9-10.3 283.13-9.5 283.58-9.08 284.03-8.65 284.78-8.4 285.53-8.15 286.68-8.15ZM307.82-30.8L307.82-30.8Q307.82-32.45 309.25-33.52 310.68-34.6 313.28-34.6L313.28-34.6Q318.73-34.6 318.73-30.8L318.73-30.8Q318.73-28.7 317.35-27.85 315.98-27 313.28-27L313.28-27Q310.93-27 309.38-27.9 307.82-28.8 307.82-30.8ZM318.68-18.35L318.68-5.35Q318.68-2.35 317.43-1.18 316.18 0 313.03 0L313.03 0Q310.07 0 309-1.38 307.93-2.75 307.93-5.9L307.93-5.9 307.93-18.2Q307.93-20.75 309.3-22.3 310.68-23.85 312.98-23.85L312.98-23.85Q315.68-23.85 317.18-22.68 318.68-21.5 318.68-18.35L318.68-18.35ZM336.97 0.3L336.97 0.3Q330.87 0.3 326.9-2.85 322.92-6 322.92-11.45L322.92-11.45Q322.92-17.35 326.85-20.78 330.77-24.2 336.97-24.2L336.97-24.2Q342.82-24.2 345.55-22.13 348.27-20.05 348.27-16.45L348.27-16.45Q348.27-15.75 348.1-15.1 347.92-14.45 347.55-13.83 347.17-13.2 346.55-12.68 345.92-12.15 345.12-11.73 344.32-11.3 343.22-11.08 342.12-10.85 340.87-10.85L340.87-10.85 333.82-10.8Q334.32-9.2 335.62-8.28 336.92-7.35 338.92-7.35L338.92-7.35Q341.07-7.35 343.32-7.9L343.32-7.9Q344.27-8.15 345.4-8.7 346.52-9.25 347.02-9.25L347.02-9.25Q347.87-9.25 348.35-8.75 348.82-8.25 348.82-7.5L348.82-7.5Q348.82-6.6 348.02-5.33 347.22-4.05 345.8-2.78 344.37-1.5 342.02-0.6 339.67 0.3 336.97 0.3ZM333.57-14L333.57-14Q337.02-14.05 337.32-14.05L337.32-14.05Q338.07-14.05 338.42-14.95L338.42-14.95Q338.67-15.6 338.67-16.75L338.67-16.75Q338.67-19.9 336.77-19.9L336.77-19.9Q336.07-19.9 335.4-19.15 334.72-18.4 334.22-17.03 333.72-15.65 333.57-14ZM355.47-10.7L355.47-10.7 355.47-16.6Q354.22-16.65 353.47-17.03 352.72-17.4 352.4-18 352.07-18.6 352.07-19.5L352.07-19.5Q352.07-22.35 355.52-22.6L355.52-22.6 355.52-27.25Q355.52-29.15 358.27-30.68 361.02-32.2 363.72-32.2L363.72-32.2Q365.37-32.2 365.87-31.25 366.37-30.3 366.37-28.4L366.37-28.4 366.42-22.65 367.77-22.65Q370.52-22.65 371.55-21.93 372.57-21.2 372.57-19.3L372.57-19.3Q372.57-18.5 372.27-17.95 371.97-17.4 371.3-17.1 370.62-16.8 369.67-16.68 368.72-16.55 367.32-16.55L367.32-16.55 366.42-16.55 366.42-11.05Q366.42-10.25 366.5-9.73 366.57-9.2 366.72-8.9 366.87-8.6 367.15-8.5 367.42-8.4 367.82-8.4L367.82-8.4Q368.42-8.4 368.82-8.83 369.22-9.25 369.44-9.78 369.67-10.3 370.05-10.73 370.42-11.15 370.92-11.15L370.92-11.15Q372.07-11.15 372.69-10.6 373.32-10.05 373.32-9.25L373.32-9.25Q373.32-7.9 372.8-6.35 372.27-4.8 371.27-3.35 370.27-1.9 368.5-0.95 366.72 0 364.52 0L364.52 0Q359.57 0 357.52-2.5 355.47-5 355.47-10.7ZM424.52-29.95L424.52-4.75Q424.52-2.55 423.22-1.28 421.92 0 419.42 0L419.42 0Q418.77 0 418.12-0.15 417.47-0.3 416.74-0.7 416.02-1.1 415.47-1.45 414.92-1.8 414.09-2.53 413.27-3.25 412.79-3.68 412.32-4.1 411.32-5.05 410.32-6 409.87-6.45L409.87-6.45 400.72-15.1 400.72-4.25Q400.72-1.8 399.79-0.9 398.87 0 396.87 0L396.87 0Q394.67 0 393.62-1 392.57-2 392.57-4.35L392.57-4.35 392.57-28.5Q392.57-31.35 394.02-32.8 395.47-34.25 398.17-34.25L398.17-34.25Q400.02-34.25 401.14-33.68 402.27-33.1 403.82-31.6L403.82-31.6 416.47-19 416.47-29.9Q416.47-32.05 417.54-33.13 418.62-34.2 420.47-34.2L420.47-34.2Q422.62-34.2 423.57-33.2 424.52-32.2 424.52-29.95L424.52-29.95ZM438.36 0.3L438.36 0.3Q434.41 0.3 431.81-2.93 429.21-6.15 429.21-11.75L429.21-11.75Q429.21-17.45 431.79-20.83 434.36-24.2 438.36-24.2L438.36-24.2Q442.41-24.2 445.86-21.35L445.86-21.35Q447.21-23.85 450.21-23.85L450.21-23.85Q452.91-23.85 454.41-22.68 455.91-21.5 455.91-18.35L455.91-18.35 455.91-5.35Q455.91-2.35 454.66-1.18 453.41 0 450.26 0L450.26 0Q446.96 0 445.91-1.85L445.91-1.85Q442.71 0.3 438.36 0.3ZM445.16-7.2L445.16-16.55Q444.31-18 442.96-18L442.96-18Q441.66-18 440.86-16.1 440.06-14.2 440.06-11.75L440.06-11.75Q440.06-9.45 440.81-7.65 441.56-5.85 442.91-5.85L442.91-5.85Q444.31-5.85 445.16-7.2L445.16-7.2ZM490.26-4.15L490.26-13.2Q490.26-16 488.01-16L488.01-16Q487.01-16 486.51-14.85 486.01-13.7 486.01-11.95L486.01-11.95Q486.01-9.3 485.94-7.55 485.86-5.8 485.61-4.4 485.36-3 485.01-2.2 484.66-1.4 484.06-0.88 483.46-0.35 482.71-0.18 481.96 0 480.81 0L480.81 0Q479.06 0 477.99-0.5 476.91-1 476.46-1.9 476.01-2.8 476.01-4.15L476.01-4.15 476.01-13.2Q476.01-16 473.76-16L473.76-16Q472.86-16 472.29-14.98 471.71-13.95 471.71-12.3L471.71-12.3 471.71-5.35Q471.71-2.35 470.46-1.18 469.21 0 466.06 0L466.06 0Q463.11 0 462.04-1.38 460.96-2.75 460.96-5.9L460.96-5.9 460.96-18.2Q460.96-20.75 462.33-22.3 463.71-23.85 466.01-23.85L466.01-23.85Q470.11-23.85 471.21-21.2L471.21-21.2Q473.11-22.6 474.94-23.15 476.76-23.7 479.21-23.7L479.21-23.7Q482.91-23.7 484.56-20.5L484.56-20.5Q484.81-20.7 485.06-20.9L485.06-20.9Q488.91-23.7 494.51-23.7L494.51-23.7Q498.06-23.7 499.61-21 501.16-18.3 501.16-11.95L501.16-11.95Q501.16-9.3 501.09-7.55 501.01-5.8 500.76-4.4 500.51-3 500.13-2.2 499.76-1.4 499.09-0.88 498.41-0.35 497.59-0.18 496.76 0 495.51 0L495.51 0Q493.61 0 492.44-0.5 491.26-1 490.76-1.9 490.26-2.8 490.26-4.15L490.26-4.15Z" opacity="1" transform="matrix(1,0,0,1,0,0)" fill="#372e18" class="slogan-text-1" data-fill-palette-color="secondary" id="text-1"></path></svg></g></svg></g></svg></g></svg></g><g transform="matrix(1,0,0,1,410.2514906731687,0)"><svg viewBox="0 0 128.7990522572387 129.124254082335" height="129.124254082335" width="128.7990522572387"><g><svg xmlns="http://www.w3.org/2000/svg" xmlns:xlink="http://www.w3.org/1999/xlink" version="1.1" x="0" y="0" viewBox="2.870000000000007 2.750000000000007 94.26199999999999 94.5" enable-background="new 0 0 100 100" xml:space="preserve" height="129.124254082335" width="128.7990522572387" class="icon-icon-0" data-fill-palette-color="accent" id="icon-0"><path fill="#372e18" d="M44.897 18.248c0 0-0.562 1.686 1.579 1.686h6.862c0 0 2.396-0.113 1.602-2.111v-0.018l-1.248-3.082c-0.521-1.331-1.856-1.413-1.856-1.413h-3.414c-1.391 0-1.976 1.066-1.988 1.088L44.897 18.248 44.897 18.248zM48.112 15.154h3.779l1.182 2.945h-6.131L48.112 15.154z" data-fill-palette-color="accent"></path><path fill="#372e18" d="M94.822 56.866L94.822 56.866c-0.056-0.039-0.09-0.055-0.09-0.055l-4.309-2.56c0.035-0.209 0.078-0.399 0.078-0.626v-5.532c0-1.976-1.613-3.586-3.59-3.586-1.968 0-3.568 1.61-3.568 3.586v1.95l-6.188-3.661v-5.341c0-1.979-1.604-3.592-3.568-3.592-1.978 0-3.578 1.613-3.578 3.592v1.088l-10.629-6.291-0.012 0.01 0.462-16.522c0-4.781-3.933-16.576-9.843-16.576-5.911 0-9.844 11.795-9.844 16.609l0.497 17.693-10.65 5.964v-1.975c0-1.979-1.603-3.592-3.569-3.592-1.976 0-3.579 1.613-3.579 3.592v5.534c0 0.147 0.024 0.286 0.034 0.431l-6.219 3.479v-2.392c0-1.976-1.591-3.586-3.569-3.586-1.976 0-3.579 1.61-3.579 3.586v5.532c0 0.285 0.043 0.554 0.1 0.815l-4.585 2.573c-0.718 0.44-2.154 1.579-2.154 3.472v9.274c0 0 0.256 2.955 3.238 1.836h0.01L41.24 58.389l0.419 14.887-9.933 6.586c0 0-2.208 1.434-2.208 3.898v5.182c0 0-0.078 2.332 2.199 1.652l12.495-3.706c0.829 0.939 1.869 1.607 3.072 2.004v5.654c0 1.49 1.214 2.704 2.706 2.704 1.502 0 2.703-1.214 2.703-2.704v-5.654c1.208-0.396 2.246-1.064 3.061-1.977l12.178 3.596c2.176 0.643 2.451-0.744 2.475-1.354v-0.266-4.854c0-2.426-2.154-4.152-2.221-4.188l-9.877-6.547 0.422-14.932 36.225 13.632c0 0 2.176 0.58 2.176-2.422v-8.73C97.131 58.43 95.287 57.158 94.822 56.866zM24.525 41.042c0-1.055 0.839-1.896 1.898-1.896 1.041 0 1.89 0.841 1.89 1.896v2.916l-3.788 2.131V41.042zM11.19 48.094c0-1.054 0.863-1.894 1.898-1.894 1.041 0 1.89 0.84 1.89 1.894v3.331l-3.788 2.137V48.094zM4.716 68.228v-6.64c0-2.342 1.691-3.24 1.71-3.258l32.567-18.245c0.622-0.31 1.714-0.587 1.769 1.188l0 0 0.219 8.219c0 0.016-0.141 1.934-1.744 2.769l0 0L6.293 69.175C5.036 69.813 4.758 68.892 4.716 68.228zM18.448 65.003l20.526-10.546c0.078-0.033 2.342-0.97 2.176 0.542-0.021 0.206-0.01 0.313 0 0.358l0.044 1.08L18.448 65.003zM31.362 88.202v-3.578c0-2.496 1.45-3.279 1.459-3.291l8.892-5.897 0.124 4.098c0 0.332 0.042 0.634 0.066 0.964L31.362 88.202zM35.25 87.642l6.918-5.074c0.208 1.004 0.497 1.947 0.928 2.746L35.25 87.642zM50.862 94.546c0 0.48-0.388 0.865-0.874 0.865-0.476 0-0.875-0.385-0.875-0.865v-5.26c0.29 0.023 0.562 0.082 0.875 0.082 0.311 0 0.575-0.059 0.874-0.082V94.546zM50.862 87.47c-0.289 0.028-0.563 0.059-0.874 0.059-0.313 0-0.598-0.031-0.875-0.059v-8.296c0-0.475 0.397-0.858 0.875-0.858 0.484 0 0.874 0.381 0.874 0.858V87.47zM52.693 86.97v-7.796c0-1.496-1.202-2.704-2.703-2.704-1.491 0-2.706 1.208-2.706 2.704v7.796c-3.304-1.55-3.615-5.918-3.615-7.464l-1.679-60.18c0-4.601 3.869-14.747 8-14.747S58 14.726 58 19.305L56.309 79.53C56.309 81.067 55.999 85.419 52.693 86.97zM56.884 85.325c0.42-0.799 0.72-1.738 0.917-2.758l6.903 5.074L56.884 85.325zM67.146 81.372c0.011 0 1.425 1.08 1.425 2.795v4.034l-10.496-7.716c0.012-0.307 0.066-0.608 0.066-0.932l0.112-4.079L67.146 81.372zM85.021 48.094c0-1.054 0.85-1.894 1.887-1.894 1.049 0 1.902 0.84 1.902 1.894v5.201l-3.789-2.254V48.094zM71.7 41.042c0-1.055 0.838-1.896 1.888-1.896 1.037 0 1.889 0.841 1.889 1.896v4.341l-3.779-2.243v-2.098H71.7zM58.797 56.438l0.053-1.954c0.397-0.732 2.109-0.009 2.109-0.009s0.012-0.033 0.034-0.051l20.562 10.579L58.797 56.438zM95.287 69.978L60.352 52.051c-0.916-0.647-1.271-1.664-1.381-2.195l0.276-9.837v0.004c0 0 0.044-2.11 2.639-0.563 0 0 0.012 0 0.023 0l31.95 18.971 0 0c0 0 1.428 0.651 1.428 2.733V69.978z" data-fill-palette-color="accent"></path></svg></g></svg></g></svg></g><defs></defs></svg><rect width="395.52" height="94.74292465602532" fill="none" stroke="none" visibility="hidden"></rect></g></svg></g></svg>